<svg width="16" height="18" viewBox="0 0 16 18" fill="none" xmlns="http://www.w3.org/2000/svg">
<path fill-rule="evenodd" clip-rule="evenodd" d="M2.21756 1.46243C2.30518 1.39878 2.39579 1.34021 2.48995 1.28633C2.52019 1.35369 2.56297 1.4168 2.61829 1.47211C3.69375 2.54753 4.53791 3.39035 5.28205 3.98593C6.0354 4.58889 6.7409 4.98466 7.55376 5.1134C8.05039 5.19206 8.5563 5.19206 9.05293 5.1134C9.84306 4.98826 10.5316 4.61085 11.2614 4.03612C11.9819 3.46871 12.7907 2.66898 13.8089 1.65157C13.8416 1.61892 13.8699 1.58356 13.8938 1.54621C14.2017 1.78605 14.4746 2.06811 14.7042 2.38423C15.5 3.47951 15.5 5.0419 15.5 8.16667V9.83334C15.5 12.9581 15.5 14.5205 14.7042 15.6158C14.4472 15.9695 14.1362 16.2806 13.7824 16.5376C12.6872 17.3333 11.1248 17.3333 8 17.3333C4.87522 17.3333 3.31283 17.3333 2.21756 16.5376C1.86383 16.2806 1.55276 15.9695 1.29576 15.6158C0.5 14.5205 0.5 12.9581 0.5 9.83334V8.16667C0.5 5.0419 0.5 3.47951 1.29576 2.38423C1.55276 2.03051 1.86383 1.71943 2.21756 1.46243ZM4.66667 8.37501C4.32149 8.37501 4.04167 8.65483 4.04167 9.00001C4.04167 9.34518 4.32149 9.62501 4.66667 9.62501H7.16667C7.51184 9.62501 7.79167 9.34518 7.79167 9.00001C7.79167 8.65483 7.51184 8.37501 7.16667 8.37501H4.66667ZM4.66667 11.7083C4.32149 11.7083 4.04167 11.9882 4.04167 12.3333C4.04167 12.6785 4.32149 12.9583 4.66667 12.9583H11.3333C11.6785 12.9583 11.9583 12.6785 11.9583 12.3333C11.9583 11.9882 11.6785 11.7083 11.3333 11.7083H4.66667Z" fill="#818181"/>
<path d="M8 0.666672C10.2499 0.666672 11.6899 0.666672 12.7286 0.963732C11.795 1.89491 11.0967 2.57479 10.4881 3.05409C9.84676 3.55913 9.3552 3.79995 8.85738 3.87879C8.49031 3.93693 8.11638 3.93693 7.74931 3.87879C7.23719 3.79768 6.73182 3.54521 6.06314 3.01002C5.44053 2.51171 4.72418 1.8087 3.76383 0.849734C4.75728 0.666672 6.08535 0.666672 8 0.666672Z" fill="#818181"/>
</svg>
