<svg width="16" height="16" viewBox="0 0 16 16" fill="none" xmlns="http://www.w3.org/2000/svg">
<path fill-rule="evenodd" clip-rule="evenodd" d="M10.6666 10.6667C10.6666 11.0333 10.3666 11.3333 9.99992 11.3333C9.63325 11.3333 9.33325 11.0333 9.33325 10.6667V8C9.33325 7.63334 9.63325 7.33334 9.99992 7.33334C10.3666 7.33334 10.6666 7.63334 10.6666 8V10.6667ZM6.66658 2.88534C6.66658 2.782 6.80925 2.66667 6.99992 2.66667H8.99992C9.19058 2.66667 9.33325 2.782 9.33325 2.88534V4H6.66658V2.88534ZM6.66658 10.6667C6.66658 11.0333 6.36659 11.3333 5.99992 11.3333C5.63325 11.3333 5.33325 11.0333 5.33325 10.6667V8C5.33325 7.63334 5.63325 7.33334 5.99992 7.33334C6.36659 7.33334 6.66658 7.63334 6.66658 8V10.6667ZM13.9999 4H13.3333H10.6666V2.88534C10.6666 2.02934 9.91925 1.33334 8.99992 1.33334H6.99992C6.08059 1.33334 5.33325 2.02934 5.33325 2.88534V4H2.66659H1.99992C1.63325 4 1.33325 4.3 1.33325 4.66667C1.33325 5.03334 1.63325 5.33334 1.99992 5.33334H2.66659V12.6667C2.66659 13.7693 3.56392 14.6667 4.66659 14.6667H11.3333C12.4359 14.6667 13.3333 13.7693 13.3333 12.6667V5.33334H13.9999C14.3666 5.33334 14.6666 5.03334 14.6666 4.66667C14.6666 4.3 14.3666 4 13.9999 4Z" fill="#F75374"/>
<mask id="mask0_452_910" style="mask-type:luminance" maskUnits="userSpaceOnUse" x="1" y="1" width="14" height="14">
<path fill-rule="evenodd" clip-rule="evenodd" d="M10.6666 10.6667C10.6666 11.0333 10.3666 11.3333 9.99992 11.3333C9.63325 11.3333 9.33325 11.0333 9.33325 10.6667V8C9.33325 7.63334 9.63325 7.33334 9.99992 7.33334C10.3666 7.33334 10.6666 7.63334 10.6666 8V10.6667ZM6.66658 2.88534C6.66658 2.782 6.80925 2.66667 6.99992 2.66667H8.99992C9.19058 2.66667 9.33325 2.782 9.33325 2.88534V4H6.66658V2.88534ZM6.66658 10.6667C6.66658 11.0333 6.36659 11.3333 5.99992 11.3333C5.63325 11.3333 5.33325 11.0333 5.33325 10.6667V8C5.33325 7.63334 5.63325 7.33334 5.99992 7.33334C6.36659 7.33334 6.66658 7.63334 6.66658 8V10.6667ZM13.9999 4H13.3333H10.6666V2.88534C10.6666 2.02934 9.91925 1.33334 8.99992 1.33334H6.99992C6.08059 1.33334 5.33325 2.02934 5.33325 2.88534V4H2.66659H1.99992C1.63325 4 1.33325 4.3 1.33325 4.66667C1.33325 5.03334 1.63325 5.33334 1.99992 5.33334H2.66659V12.6667C2.66659 13.7693 3.56392 14.6667 4.66659 14.6667H11.3333C12.4359 14.6667 13.3333 13.7693 13.3333 12.6667V5.33334H13.9999C14.3666 5.33334 14.6666 5.03334 14.6666 4.66667C14.6666 4.3 14.3666 4 13.9999 4Z" fill="white"/>
</mask>
<g mask="url(#mask0_452_910)">
</g>
</svg>
