<svg width="20" height="20" viewBox="0 0 20 20" fill="none" xmlns="http://www.w3.org/2000/svg">
<path fill-rule="evenodd" clip-rule="evenodd" d="M13.3333 13.3333C13.3333 13.7917 12.9583 14.1667 12.5 14.1667C12.0417 14.1667 11.6667 13.7917 11.6667 13.3333V10C11.6667 9.54166 12.0417 9.16666 12.5 9.16666C12.9583 9.16666 13.3333 9.54166 13.3333 10V13.3333ZM8.33332 3.60666C8.33332 3.4775 8.51166 3.33333 8.74999 3.33333H11.25C11.4883 3.33333 11.6667 3.4775 11.6667 3.60666V5H8.33332V3.60666ZM8.33332 13.3333C8.33332 13.7917 7.95832 14.1667 7.49999 14.1667C7.04166 14.1667 6.66666 13.7917 6.66666 13.3333V10C6.66666 9.54166 7.04166 9.16666 7.49999 9.16666C7.95832 9.16666 8.33332 9.54166 8.33332 10V13.3333ZM17.5 5H16.6667H13.3333V3.60666C13.3333 2.53666 12.3992 1.66666 11.25 1.66666H8.74999C7.60082 1.66666 6.66666 2.53666 6.66666 3.60666V5H3.33332H2.49999C2.04166 5 1.66666 5.375 1.66666 5.83333C1.66666 6.29166 2.04166 6.66666 2.49999 6.66666H3.33332V15.8333C3.33332 17.2117 4.45499 18.3333 5.83332 18.3333H14.1667C15.545 18.3333 16.6667 17.2117 16.6667 15.8333V6.66666H17.5C17.9583 6.66666 18.3333 6.29166 18.3333 5.83333C18.3333 5.375 17.9583 5 17.5 5Z" fill="white"/>
<mask id="mask0_452_1494" style="mask-type:luminance" maskUnits="userSpaceOnUse" x="1" y="1" width="18" height="18">
<path fill-rule="evenodd" clip-rule="evenodd" d="M13.3333 13.3333C13.3333 13.7917 12.9583 14.1667 12.5 14.1667C12.0417 14.1667 11.6667 13.7917 11.6667 13.3333V10C11.6667 9.54166 12.0417 9.16666 12.5 9.16666C12.9583 9.16666 13.3333 9.54166 13.3333 10V13.3333ZM8.33332 3.60666C8.33332 3.4775 8.51166 3.33333 8.74999 3.33333H11.25C11.4883 3.33333 11.6667 3.4775 11.6667 3.60666V5H8.33332V3.60666ZM8.33332 13.3333C8.33332 13.7917 7.95832 14.1667 7.49999 14.1667C7.04166 14.1667 6.66666 13.7917 6.66666 13.3333V10C6.66666 9.54166 7.04166 9.16666 7.49999 9.16666C7.95832 9.16666 8.33332 9.54166 8.33332 10V13.3333ZM17.5 5H16.6667H13.3333V3.60666C13.3333 2.53666 12.3992 1.66666 11.25 1.66666H8.74999C7.60082 1.66666 6.66666 2.53666 6.66666 3.60666V5H3.33332H2.49999C2.04166 5 1.66666 5.375 1.66666 5.83333C1.66666 6.29166 2.04166 6.66666 2.49999 6.66666H3.33332V15.8333C3.33332 17.2117 4.45499 18.3333 5.83332 18.3333H14.1667C15.545 18.3333 16.6667 17.2117 16.6667 15.8333V6.66666H17.5C17.9583 6.66666 18.3333 6.29166 18.3333 5.83333C18.3333 5.375 17.9583 5 17.5 5Z" fill="white"/>
</mask>
<g mask="url(#mask0_452_1494)">
</g>
</svg>
