<svg width="16" height="16" viewBox="0 0 16 16" fill="none" xmlns="http://www.w3.org/2000/svg">
<path fill-rule="evenodd" clip-rule="evenodd" d="M1.29576 2.21756C0.5 3.31283 0.5 4.87522 0.5 8C0.5 11.1248 0.5 12.6872 1.29576 13.7824C1.55276 14.1362 1.86383 14.4472 2.21756 14.7042C3.31283 15.5 4.87522 15.5 8 15.5C11.1248 15.5 12.6872 15.5 13.7824 14.7042C14.1362 14.4472 14.4472 14.1362 14.7042 13.7824C15.5 12.6872 15.5 11.1248 15.5 8C15.5 4.87522 15.5 3.31283 14.7042 2.21756C14.4472 1.86383 14.1362 1.55276 13.7824 1.29576C12.6872 0.5 11.1248 0.5 8 0.5C4.87522 0.5 3.31283 0.5 2.21756 1.29576C1.86383 1.55276 1.55276 1.86383 1.29576 2.21756ZM9.63331 3.74882C9.86907 3.51215 10.157 3.28824 10.5402 3.22717C10.6189 3.21464 10.6983 3.20833 10.7778 3.20833C10.8574 3.20833 10.9368 3.21464 11.0154 3.22717C11.3987 3.28824 11.6866 3.51215 11.9224 3.74881C12.1496 3.97693 12.4004 4.29324 12.6912 4.65998L13.4898 5.66725C13.7043 5.93772 13.6589 6.33084 13.3884 6.54529C13.1179 6.75975 12.7248 6.71434 12.5103 6.44386L11.7338 5.46444C11.6074 5.30512 11.4987 5.16825 11.4028 5.05036V11.6111C11.4028 11.9563 11.123 12.2361 10.7778 12.2361C10.4327 12.2361 10.1528 11.9563 10.1528 11.6111V5.05036C10.057 5.16825 9.94826 5.30512 9.82194 5.46444L9.04536 6.44386C8.8309 6.71434 8.43779 6.75975 8.16732 6.54529C7.89684 6.33084 7.85143 5.93772 8.06589 5.66725L8.86453 4.65999C9.15529 4.29325 9.40607 3.97694 9.63331 3.74882ZM5.84722 4.38875C5.84722 4.04357 5.5674 3.76375 5.22222 3.76375C4.87704 3.76375 4.59722 4.04357 4.59722 4.38875L4.59722 10.9495C4.50136 10.8316 4.39264 10.6947 4.26632 10.5354L3.48974 9.556C3.27528 9.28553 2.88217 9.24012 2.61169 9.45457C2.34122 9.66903 2.29581 10.0621 2.51026 10.3326L3.30891 11.3399C3.59967 11.7066 3.85045 12.0229 4.07769 12.251C4.31345 12.4877 4.60134 12.7116 4.98462 12.7727C5.06326 12.7852 5.14266 12.7915 5.22222 12.7915C5.30179 12.7915 5.38118 12.7852 5.45982 12.7727C5.84311 12.7116 6.131 12.4877 6.36676 12.251C6.594 12.0229 6.84477 11.7066 7.13552 11.3399L7.93418 10.3326C8.14864 10.0621 8.10323 9.66903 7.83275 9.45457C7.56228 9.24012 7.16917 9.28553 6.95471 9.556L6.17813 10.5354C6.05181 10.6947 5.94309 10.8316 5.84722 10.9495L5.84722 4.38875Z" fill="white"/>
</svg>
