<svg width="16" height="16" viewBox="0 0 16 16" fill="none" xmlns="http://www.w3.org/2000/svg">
<path d="M8.26238 9.66762C8.4036 9.66762 8.52364 9.62526 8.66486 9.48403L11.0515 7.17508C11.1574 7.06916 11.221 6.95619 11.221 6.8079C11.221 6.5184 10.995 6.31363 10.7055 6.31363C10.5713 6.31363 10.4231 6.37012 10.3242 6.4831L9.25093 7.61992L8.77784 8.12126L8.8202 7.0621V0.953104C8.8202 0.656541 8.56601 0.402344 8.26238 0.402344C7.95876 0.402344 7.6975 0.656541 7.6975 0.953104V7.0621L7.73987 8.12126L7.26678 7.61992L6.1935 6.4831C6.09465 6.37012 5.9393 6.31363 5.80514 6.31363C5.50858 6.31363 5.29675 6.5184 5.29675 6.8079C5.29675 6.95619 5.3603 7.06916 5.46621 7.17508L7.85284 9.48403C7.99406 9.62526 8.1141 9.66762 8.26238 9.66762ZM4.20935 14.3138H12.3084C13.7841 14.3138 14.5255 13.5794 14.5255 12.1249V5.07795C14.5255 3.62338 13.7841 2.88903 12.3084 2.88903H10.3383V4.02586H12.2872C12.9862 4.02586 13.3887 4.40715 13.3887 5.1415V12.0613C13.3887 12.7957 12.9862 13.177 12.2872 13.177H4.22347C3.51737 13.177 3.12901 12.7957 3.12901 12.0613L3.12901 5.1415C3.12901 4.40715 3.51737 4.02586 4.22347 4.02586H6.17938V2.88903H4.20935C2.7336 2.88903 1.99219 3.62338 1.99219 5.07795L1.99219 12.1249C1.99219 13.5794 2.7336 14.3138 4.20935 14.3138Z" fill="url(#paint0_linear_452_906)"/>
<defs>
<linearGradient id="paint0_linear_452_906" x1="1.67885" y1="-4.81445" x2="22.4677" y2="-2.37204" gradientUnits="userSpaceOnUse">
<stop stop-color="#BAFF00"/>
<stop offset="1" stop-color="#149C6B"/>
</linearGradient>
</defs>
</svg>
