<svg width="20" height="20" viewBox="0 0 20 20" fill="none" xmlns="http://www.w3.org/2000/svg">
<path d="M0.621582 13.4782C2.03451 17.2862 5.69994 20 9.99959 20C14.2992 20 17.9647 17.2862 19.3776 13.4782L9.99959 12.6087L0.621582 13.4782Z" fill="#FFDA44"/>
<path d="M9.99959 0C5.69994 0 2.03451 2.71375 0.621582 6.52176L9.99959 7.39129L19.3776 6.52172C17.9647 2.71375 14.2992 0 9.99959 0Z" fill="black"/>
<path d="M0.621992 6.5217C0.220039 7.60502 0 8.77674 0 9.99994C0 11.2231 0.220039 12.3949 0.621992 13.4782H19.378C19.78 12.3949 20 11.2231 20 9.99994C20 8.77674 19.78 7.60502 19.378 6.5217H0.621992Z" fill="#D80027"/>
</svg>
