<svg width="20" height="20" viewBox="0 0 20 20" fill="none" xmlns="http://www.w3.org/2000/svg">
<path d="M0 10C0 11.2232 0.220039 12.3949 0.621992 13.4782L10 14.3478L19.378 13.4782C19.78 12.3949 20 11.2232 20 10C20 8.7768 19.78 7.60508 19.378 6.52176L10 5.65219L0.621992 6.52176C0.220039 7.60508 0 8.7768 0 10H0Z" fill="#FFDA44"/>
<path d="M19.3776 6.52176C17.9647 2.71379 14.2992 0 9.99959 0C5.69994 0 2.03451 2.71379 0.621582 6.52176H19.3776Z" fill="#D80027"/>
<path d="M0.621582 13.4783C2.03451 17.2863 5.69994 20.0001 9.99959 20.0001C14.2992 20.0001 17.9647 17.2863 19.3776 13.4783H0.621582Z" fill="#D80027"/>
</svg>
