<svg width="172" height="16" viewBox="0 0 172 16" fill="none" xmlns="http://www.w3.org/2000/svg">
<g clip-path="url(#clip0_512_1066)">
<path d="M96.107 7.85199C96.9931 8.04076 97.7048 8.48392 98.2423 9.18111C98.7797 9.86381 99.0484 10.6482 99.0484 11.5342C99.0484 12.8126 98.5981 13.8292 97.6976 14.5846C96.8115 15.3255 95.5696 15.6959 93.9718 15.6959H86.8469V0.40033H93.7321C95.2863 0.40033 96.4992 0.75625 97.3707 1.46809C98.2568 2.17976 98.6998 3.14563 98.6998 4.36589C98.6998 5.26651 98.4601 6.01445 97.9808 6.6101C97.516 7.20557 96.8914 7.61959 96.107 7.85199ZM90.5727 6.5883H93.0131C93.6232 6.5883 94.088 6.45762 94.4075 6.19608C94.7416 5.92007 94.9087 5.52071 94.9087 4.99764C94.9087 4.47475 94.7416 4.07539 94.4075 3.79938C94.088 3.52336 93.6232 3.38535 93.0131 3.38535H90.5727V6.5883ZM93.3181 12.689C93.9427 12.689 94.4221 12.551 94.756 12.275C95.1048 11.9845 95.2791 11.5705 95.2791 11.0331C95.2791 10.4956 95.0975 10.0744 94.7344 9.76943C94.3856 9.46427 93.899 9.31179 93.2744 9.31179H90.5727V12.689H93.3181Z" fill="url(#paint0_linear_512_1066)"/>
<path d="M104.935 12.8197H109.816V15.6959H101.209V0.40033H104.935V12.8197Z" fill="url(#paint1_linear_512_1066)"/>
<path d="M118.826 15.8484C117.388 15.8484 116.067 15.5143 114.861 14.846C113.67 14.178 112.718 13.2482 112.007 12.0571C111.31 10.8515 110.961 9.50058 110.961 8.0045C110.961 6.50841 111.31 5.1648 112.007 3.97369C112.718 2.78257 113.67 1.853 114.861 1.18477C116.067 0.516546 117.388 0.182434 118.826 0.182434C120.264 0.182434 121.579 0.516546 122.77 1.18477C123.976 1.853 124.92 2.78257 125.603 3.97369C126.3 5.1648 126.648 6.50841 126.648 8.0045C126.648 9.50058 126.3 10.8515 125.603 12.0571C124.905 13.2482 123.961 14.178 122.77 14.846C121.579 15.5143 120.264 15.8484 118.826 15.8484ZM118.826 12.4493C120.047 12.4493 121.02 12.0426 121.746 11.2292C122.487 10.4159 122.857 9.34095 122.857 8.0045C122.857 6.65374 122.487 5.57882 121.746 4.77992C121.02 3.96636 120.047 3.55967 118.826 3.55967C117.592 3.55967 116.604 3.95921 115.863 4.75811C115.137 5.55701 114.774 6.63909 114.774 8.0045C114.774 9.35543 115.137 10.4375 115.863 11.251C116.604 12.0499 117.592 12.4493 118.826 12.4493Z" fill="url(#paint2_linear_512_1066)"/>
<path d="M128.089 8.02629C128.089 6.51572 128.416 5.17213 129.07 3.99549C129.723 2.80438 130.631 1.88195 131.793 1.22838C132.97 0.560155 134.299 0.226044 135.78 0.226044C137.596 0.226044 139.15 0.705494 140.443 1.66403C141.736 2.62275 142.6 3.93006 143.036 5.58596H138.94C138.635 4.94688 138.199 4.46029 137.633 4.12617C137.08 3.79206 136.449 3.62509 135.737 3.62509C134.589 3.62509 133.66 4.02445 132.948 4.82335C132.236 5.62225 131.88 6.69002 131.88 8.02629C131.88 9.36274 132.236 10.4303 132.948 11.2292C133.66 12.0281 134.589 12.4275 135.737 12.4275C136.449 12.4275 137.08 12.2605 137.633 11.9264C138.199 11.5923 138.635 11.1057 138.94 10.4666H143.036C142.6 12.1225 141.736 13.4298 140.443 14.3886C139.15 15.3326 137.596 15.8047 135.78 15.8047C134.299 15.8047 132.97 15.478 131.793 14.8242C130.631 14.1562 129.723 13.2337 129.07 12.0571C128.416 10.8806 128.089 9.53704 128.089 8.02629Z" fill="url(#paint3_linear_512_1066)"/>
<path d="M154.185 15.6959L149.043 8.94138V15.6959H145.318V0.40033H149.043V7.11119L154.142 0.40033H158.521L152.595 7.89561L158.739 15.6959H154.185Z" fill="url(#paint4_linear_512_1066)"/>
<path d="M166.044 15.8484C164.926 15.8484 163.924 15.6667 163.038 15.3037C162.152 14.9404 161.44 14.403 160.902 13.6914C160.379 12.9795 160.103 12.1225 160.074 11.1202H164.04C164.098 11.6867 164.294 12.1225 164.628 12.4275C164.962 12.718 165.398 12.8633 165.935 12.8633C166.487 12.8633 166.923 12.7398 167.243 12.4929C167.562 12.2314 167.722 11.8757 167.722 11.4253C167.722 11.0476 167.591 10.7353 167.33 10.4884C167.083 10.2414 166.771 10.0381 166.393 9.87831C166.03 9.7185 165.507 9.53705 164.824 9.33362C163.837 9.02864 163.03 8.72349 162.406 8.41851C161.781 8.11354 161.244 7.66323 160.793 7.06758C160.343 6.47211 160.118 5.69502 160.118 4.7363C160.118 3.31279 160.634 2.20159 161.665 1.40268C162.696 0.589302 164.04 0.182434 165.696 0.182434C167.381 0.182434 168.739 0.589302 169.77 1.40268C170.802 2.20159 171.354 3.32012 171.426 4.75811H167.395C167.366 4.26418 167.185 3.87931 166.851 3.60329C166.516 3.3128 166.088 3.16745 165.565 3.16745C165.115 3.16745 164.752 3.29098 164.476 3.53786C164.2 3.77025 164.062 4.1117 164.062 4.56201C164.062 5.05576 164.294 5.44082 164.759 5.71684C165.224 5.99267 165.95 6.29048 166.938 6.61012C167.925 6.94423 168.725 7.26369 169.334 7.56884C169.96 7.87382 170.496 8.31679 170.947 8.89778C171.397 9.47894 171.622 10.2269 171.622 11.142C171.622 12.0137 171.397 12.8052 170.947 13.5169C170.51 14.2288 169.872 14.7953 169.03 15.2164C168.186 15.6378 167.192 15.8484 166.044 15.8484Z" fill="url(#paint5_linear_512_1066)"/>
<path d="M19.8291 7.95196C19.8291 6.44139 20.1559 5.09761 20.8096 3.92115C21.4632 2.73004 22.371 1.80761 23.5331 1.15405C24.7096 0.48582 26.0387 0.151703 27.5203 0.151703C29.336 0.151703 30.8902 0.631153 32.183 1.58969C33.4759 2.54841 34.34 3.85573 34.7759 5.51163H30.6796C30.3747 4.87255 29.9388 4.38594 29.3723 4.05183C28.8205 3.71772 28.1885 3.55076 27.4769 3.55076C26.3292 3.55076 25.3996 3.95012 24.6879 4.74902C23.9761 5.54792 23.6202 6.61569 23.6202 7.95196C23.6202 9.28841 23.9761 10.356 24.6879 11.1549C25.3996 11.9538 26.3292 12.3532 27.4769 12.3532C28.1885 12.3532 28.8205 12.1862 29.3723 11.8521C29.9388 11.518 30.3747 11.0314 30.6796 10.3923H34.7759C34.34 12.0482 33.4759 13.3555 32.183 14.3142C30.8902 15.2583 29.336 15.7304 27.5203 15.7304C26.0387 15.7304 24.7096 15.4036 23.5331 14.7499C22.371 14.0818 21.4632 13.1594 20.8096 11.9828C20.1559 10.8063 19.8291 9.46271 19.8291 7.95196Z" fill="white"/>
<path d="M44.8576 15.6215L41.6767 9.84758H40.7832V15.6215H37.0574V0.325989H43.3108C44.5164 0.325989 45.5403 0.536575 46.3829 0.957925C47.2399 1.3791 47.8789 1.96008 48.3003 2.70089C48.7215 3.42721 48.932 4.2406 48.932 5.14122C48.932 6.15803 48.6415 7.06599 48.0606 7.86489C47.4941 8.66379 46.6515 9.23012 45.5332 9.56423L49.0629 15.6215H44.8576ZM40.7832 7.21114H43.0928C43.7756 7.21114 44.284 7.04417 44.6181 6.71006C44.9667 6.37595 45.141 5.90383 45.141 5.29371C45.141 4.71272 44.9667 4.25525 44.6181 3.92114C44.284 3.58703 43.7756 3.42006 43.0928 3.42006H40.7832V7.21114Z" fill="white"/>
<path d="M54.9966 3.31102V6.40491H59.9861V9.28107H54.9966V12.6365H60.6397V15.6215H51.2708V0.325989H60.6397V3.31102H54.9966Z" fill="white"/>
<path d="M68.7892 0.325989C70.4014 0.325989 71.8105 0.645623 73.0161 1.28471C74.2217 1.9238 75.1514 2.82441 75.805 3.98639C76.4732 5.13406 76.8073 6.46301 76.8073 7.97376C76.8073 9.46985 76.4732 10.799 75.805 11.9609C75.1514 13.1231 74.2145 14.0237 72.9943 14.6628C71.7887 15.3019 70.387 15.6215 68.7892 15.6215H63.0588V0.325989H68.7892ZM68.5494 12.3968C69.9585 12.3968 71.0552 12.0119 71.8396 11.2419C72.6239 10.4722 73.0161 9.38279 73.0161 7.97376C73.0161 6.56473 72.6239 5.46799 71.8396 4.68375C71.0552 3.89933 69.9585 3.50712 68.5494 3.50712H66.7847V12.3968H68.5494Z" fill="white"/>
<path d="M82.6155 0.325989V15.6215H78.8896V0.325989H82.6155Z" fill="white"/>
<path fill-rule="evenodd" clip-rule="evenodd" d="M7.48388 2.91553C7.48388 2.20797 8.05753 1.63449 8.76491 1.63449H12.349C13.0564 1.63449 13.63 2.20797 13.63 2.91553V7.50157C13.63 8.20912 13.0564 8.7826 12.349 8.7826H9.5917C8.88414 8.7826 8.31067 9.35609 8.31067 10.0636V14.5671C8.31067 15.2747 7.73701 15.8481 7.02958 15.8481H3.4456C2.7381 15.8481 2.16455 15.2747 2.16455 14.5671V9.98104C2.16455 9.27349 2.7381 8.70002 3.4456 8.70002H6.20286C6.91036 8.70002 7.48388 8.12654 7.48388 7.41898V2.91553Z" fill="url(#paint6_linear_512_1066)"/>
<path d="M0.11084 1.60071C0.11084 0.906566 0.673522 0.343811 1.36761 0.343811H5.00724C5.70135 0.343811 6.26403 0.906566 6.26403 1.60071V6.25452C6.26403 6.94848 5.70135 7.51123 5.00726 7.51123H1.36761C0.673522 7.51123 0.11084 6.94848 0.11084 6.25452V1.60071Z" fill="#BAFF20"/>
</g>
<defs>
<linearGradient id="paint0_linear_512_1066" x1="84.7277" y1="-5.69217" x2="179.892" y2="61.4643" gradientUnits="userSpaceOnUse">
<stop stop-color="#BAFF00"/>
<stop offset="1" stop-color="#149C6B"/>
</linearGradient>
<linearGradient id="paint1_linear_512_1066" x1="84.7277" y1="-5.69217" x2="179.892" y2="61.4642" gradientUnits="userSpaceOnUse">
<stop stop-color="#BAFF00"/>
<stop offset="1" stop-color="#149C6B"/>
</linearGradient>
<linearGradient id="paint2_linear_512_1066" x1="84.7275" y1="-5.69216" x2="179.892" y2="61.4643" gradientUnits="userSpaceOnUse">
<stop stop-color="#BAFF00"/>
<stop offset="1" stop-color="#149C6B"/>
</linearGradient>
<linearGradient id="paint3_linear_512_1066" x1="84.7272" y1="-5.69216" x2="179.892" y2="61.4643" gradientUnits="userSpaceOnUse">
<stop stop-color="#BAFF00"/>
<stop offset="1" stop-color="#149C6B"/>
</linearGradient>
<linearGradient id="paint4_linear_512_1066" x1="84.7273" y1="-5.69217" x2="179.892" y2="61.4642" gradientUnits="userSpaceOnUse">
<stop stop-color="#BAFF00"/>
<stop offset="1" stop-color="#149C6B"/>
</linearGradient>
<linearGradient id="paint5_linear_512_1066" x1="84.7275" y1="-5.69215" x2="179.892" y2="61.4644" gradientUnits="userSpaceOnUse">
<stop stop-color="#BAFF00"/>
<stop offset="1" stop-color="#149C6B"/>
</linearGradient>
<linearGradient id="paint6_linear_512_1066" x1="12.0181" y1="1.96807" x2="2.30477" y2="15.9391" gradientUnits="userSpaceOnUse">
<stop stop-color="#AEF808"/>
<stop offset="1" stop-color="#6BD033"/>
</linearGradient>
<clipPath id="clip0_512_1066">
<rect width="171.733" height="16" fill="white"/>
</clipPath>
</defs>
</svg>
