<svg width="16" height="17" viewBox="0 0 16 17" fill="none" xmlns="http://www.w3.org/2000/svg">
<path fill-rule="evenodd" clip-rule="evenodd" d="M8.625 1.5C8.625 1.15482 8.34518 0.875 8 0.875C7.65482 0.875 7.375 1.15482 7.375 1.5V6.5H5.5C4.72583 6.5 4.33874 6.5 4.01486 6.5513C2.23197 6.83368 0.83368 8.23197 0.551299 10.0149C0.5 10.3387 0.5 10.7258 0.5 11.5C0.5 12.2742 0.5 12.6613 0.551299 12.9851C0.83368 14.768 2.23197 16.1663 4.01486 16.4487C4.33874 16.5 4.72583 16.5 5.5 16.5H10.5C11.2742 16.5 11.6613 16.5 11.9851 16.4487C13.768 16.1663 15.1663 14.768 15.4487 12.9851C15.5 12.6613 15.5 12.2742 15.5 11.5C15.5 10.7258 15.5 10.3387 15.4487 10.0149C15.1663 8.23197 13.768 6.83368 11.9851 6.5513C11.6613 6.5 11.2742 6.5 10.5 6.5H8.625V1.5ZM8.625 6.5H7.375V12.1754C7.10612 11.9025 6.78646 11.5009 6.32127 10.9142L5.1564 9.44502C4.94195 9.17455 4.54883 9.12914 4.27836 9.3436C4.00788 9.55805 3.96247 9.95117 4.17693 10.2216L5.36548 11.7206C5.80979 12.281 6.17643 12.7435 6.50459 13.0729C6.84135 13.411 7.21513 13.6912 7.69277 13.7673C7.79453 13.7835 7.89718 13.7917 8 13.7917C8.10282 13.7917 8.20547 13.7835 8.30723 13.7673C8.78487 13.6912 9.15865 13.411 9.49541 13.0729C9.82357 12.7435 10.1902 12.281 10.6345 11.7206L11.8231 10.2216C12.0375 9.95117 11.9921 9.55805 11.7216 9.3436C11.4512 9.12914 11.0581 9.17455 10.8436 9.44502L9.67872 10.9142C9.21354 11.5009 8.89388 11.9025 8.625 12.1754V6.5Z" fill="white"/>
</svg>
