<svg width="44" height="44" viewBox="0 0 44 44" fill="none" xmlns="http://www.w3.org/2000/svg">
<path d="M17.1142 8.8049C17.8643 8.68611 18.376 7.98178 18.2572 7.23174C18.1384 6.48169 17.4341 5.96997 16.684 6.08876C12.1733 6.80319 8.63565 10.3409 7.92123 14.8516C7.80243 15.6016 8.31416 16.3059 9.0642 16.4247C9.81424 16.5435 10.5186 16.0318 10.6374 15.2818C11.1654 11.9478 13.7802 9.33296 17.1142 8.8049Z" fill="white"/>
<path fill-rule="evenodd" clip-rule="evenodd" d="M20.1665 0.458984C10.2944 0.458984 2.2915 8.46189 2.2915 18.334C2.2915 28.2061 10.2944 36.209 20.1665 36.209C30.0386 36.209 38.0415 28.2061 38.0415 18.334C38.0415 8.46189 30.0386 0.458984 20.1665 0.458984ZM5.0415 18.334C5.0415 9.98068 11.8132 3.20898 20.1665 3.20898C28.5198 3.20898 35.2915 9.98068 35.2915 18.334C35.2915 26.6873 28.5198 33.459 20.1665 33.459C11.8132 33.459 5.0415 26.6873 5.0415 18.334Z" fill="white"/>
<path d="M35.8056 32.0286C35.2686 31.4916 34.398 31.4916 33.861 32.0285C33.3241 32.5655 33.324 33.4361 33.861 33.9731L41.1942 41.3063C41.7311 41.8433 42.6017 41.8433 43.1387 41.3063C43.6757 40.7694 43.6757 39.8988 43.1387 39.3618L35.8056 32.0286Z" fill="white"/>
</svg>
