<svg width="20" height="20" viewBox="0 0 20 20" fill="none" xmlns="http://www.w3.org/2000/svg">
<g opacity="0.4">
<path d="M7.77922 4.00223C8.12015 3.94824 8.35276 3.62808 8.29876 3.28716C8.24476 2.94623 7.92461 2.71363 7.58368 2.76762C5.53336 3.09236 3.92533 4.7004 3.60059 6.75071C3.54659 7.09164 3.7792 7.41179 4.12012 7.46579C4.46105 7.51979 4.7812 7.28718 4.8352 6.94626C5.07522 5.4308 6.26377 4.24226 7.77922 4.00223Z" fill="white"/>
<path fill-rule="evenodd" clip-rule="evenodd" d="M9.16663 0.208633C4.67931 0.208633 1.04163 3.84632 1.04163 8.33363C1.04163 12.8209 4.67931 16.4586 9.16663 16.4586C13.6539 16.4586 17.2916 12.8209 17.2916 8.33363C17.2916 3.84632 13.6539 0.208633 9.16663 0.208633ZM2.29163 8.33363C2.29163 4.53668 5.36967 1.45863 9.16663 1.45863C12.9636 1.45863 16.0416 4.53668 16.0416 8.33363C16.0416 12.1306 12.9636 15.2086 9.16663 15.2086C5.36967 15.2086 2.29163 12.1306 2.29163 8.33363Z" fill="white"/>
<path d="M16.2753 14.5584C16.0312 14.3144 15.6355 14.3144 15.3914 14.5584C15.1473 14.8025 15.1473 15.1982 15.3914 15.4423L18.7246 18.7756C18.9687 19.0197 19.3645 19.0197 19.6085 18.7756C19.8526 18.5315 19.8526 18.1358 19.6085 17.8917L16.2753 14.5584Z" fill="white"/>
</g>
</svg>
