<svg width="20" height="20" viewBox="0 0 20 20" fill="none" xmlns="http://www.w3.org/2000/svg">
<path d="M8.12502 10C8.12502 8.96448 8.96449 8.12502 10 8.12502C11.0356 8.12502 11.875 8.96448 11.875 10C11.875 11.0355 11.0356 11.875 10 11.875C8.96449 11.875 8.12502 11.0355 8.12502 10Z" fill="#818181"/>
<path fill-rule="evenodd" clip-rule="evenodd" d="M7.15438 2.69358C7.97139 -0.169233 12.0286 -0.169234 12.8456 2.69358C13.0987 3.58059 14.01 4.10672 14.9047 3.88244C17.7925 3.15859 19.8211 6.6722 17.7503 8.81116C17.1087 9.47389 17.1087 10.5261 17.7503 11.1889C19.8211 13.3278 17.7925 16.8414 14.9047 16.1176C14.01 15.8933 13.0987 16.4194 12.8456 17.3064C12.0286 20.1693 7.97139 20.1693 7.15438 17.3064C6.90124 16.4194 5.98995 15.8933 5.09522 16.1176C2.20744 16.8414 0.178853 13.3278 2.24962 11.1889C2.89122 10.5261 2.89122 9.47389 2.24962 8.81116C0.178853 6.6722 2.20744 3.15859 5.09522 3.88244C5.98995 4.10672 6.90124 3.58059 7.15438 2.69358ZM10 6.87502C8.27413 6.87502 6.87502 8.27413 6.87502 10C6.87502 11.7259 8.27413 13.125 10 13.125C11.7259 13.125 13.125 11.7259 13.125 10C13.125 8.27413 11.7259 6.87502 10 6.87502Z" fill="#818181"/>
</svg>
