<svg width="20" height="20" viewBox="0 0 20 20" fill="none" xmlns="http://www.w3.org/2000/svg">
<path d="M8.12508 10C8.12508 8.96448 8.96455 8.12502 10.0001 8.12502C11.0356 8.12502 11.8751 8.96448 11.8751 10C11.8751 11.0355 11.0356 11.875 10.0001 11.875C8.96455 11.875 8.12508 11.0355 8.12508 10Z" fill="url(#paint0_linear_452_863)"/>
<path fill-rule="evenodd" clip-rule="evenodd" d="M7.15444 2.69358C7.97145 -0.169233 12.0286 -0.169234 12.8456 2.69358C13.0988 3.58059 14.0101 4.10672 14.9048 3.88244C17.7926 3.15859 19.8212 6.6722 17.7504 8.81116C17.1088 9.47389 17.1088 10.5261 17.7504 11.1889C19.8212 13.3278 17.7926 16.8414 14.9048 16.1176C14.0101 15.8933 13.0988 16.4194 12.8456 17.3064C12.0286 20.1693 7.97145 20.1693 7.15444 17.3064C6.9013 16.4194 5.99002 15.8933 5.09528 16.1176C2.2075 16.8414 0.178914 13.3278 2.24968 11.1889C2.89128 10.5261 2.89128 9.47389 2.24968 8.81116C0.178914 6.6722 2.2075 3.15859 5.09528 3.88244C5.99001 4.10672 6.9013 3.58059 7.15444 2.69358ZM10.0001 6.87502C8.27419 6.87502 6.87508 8.27413 6.87508 10C6.87508 11.7259 8.27419 13.125 10.0001 13.125C11.726 13.125 13.1251 11.7259 13.1251 10C13.1251 8.27413 11.726 6.87502 10.0001 6.87502Z" fill="url(#paint1_linear_452_863)"/>
<defs>
<linearGradient id="paint0_linear_452_863" x1="0.973228" y1="-6.54369" x2="29.4851" y2="-3.16249" gradientUnits="userSpaceOnUse">
<stop stop-color="#BAFF00"/>
<stop offset="1" stop-color="#149C6B"/>
</linearGradient>
<linearGradient id="paint1_linear_452_863" x1="0.973228" y1="-6.54369" x2="29.4851" y2="-3.16249" gradientUnits="userSpaceOnUse">
<stop stop-color="#BAFF00"/>
<stop offset="1" stop-color="#149C6B"/>
</linearGradient>
</defs>
</svg>
