<svg width="20" height="20" viewBox="0 0 20 20" fill="none" xmlns="http://www.w3.org/2000/svg">
<path fill-rule="evenodd" clip-rule="evenodd" d="M10 18.3333C14.6024 18.3333 18.3334 14.6024 18.3334 10C18.3334 5.39763 14.6024 1.66667 10 1.66667C5.39765 1.66667 1.66669 5.39763 1.66669 10C1.66669 14.6024 5.39765 18.3333 10 18.3333ZM14.6323 7.9169C14.8626 7.65973 14.8407 7.2646 14.5836 7.03436C14.3264 6.80412 13.9313 6.82594 13.701 7.08311L10.8934 10.2191C10.3245 10.8545 9.94135 11.2802 9.61378 11.5556C9.30174 11.8178 9.11846 11.875 8.95835 11.875C8.79825 11.875 8.61497 11.8178 8.30292 11.5556C7.97535 11.2802 7.59222 10.8545 7.02331 10.2191L6.299 9.41008C6.06875 9.15291 5.67363 9.13108 5.41646 9.36133C5.15929 9.59157 5.13746 9.9867 5.36771 10.2439L6.12296 11.0874C6.65284 11.6793 7.0948 12.173 7.49865 12.5124C7.92584 12.8715 8.38662 13.125 8.95835 13.125C9.53008 13.125 9.99086 12.8715 10.4181 12.5124C10.8219 12.173 11.2639 11.6793 11.7937 11.0874L14.6323 7.9169Z" fill="#818181"/>
</svg>
