<svg width="18" height="18" viewBox="0 0 18 18" fill="none" xmlns="http://www.w3.org/2000/svg">
<path fill-rule="evenodd" clip-rule="evenodd" d="M9.00008 17.3333C13.6025 17.3333 17.3334 13.6024 17.3334 9C17.3334 4.39763 13.6025 0.666672 9.00008 0.666672C4.39771 0.666672 0.666748 4.39763 0.666748 9C0.666748 13.6024 4.39771 17.3333 9.00008 17.3333ZM13.6324 6.9169C13.8626 6.65973 13.8408 6.2646 13.5836 6.03436C13.3265 5.80412 12.9313 5.82594 12.7011 6.08311L9.89346 9.21909C9.32454 9.85454 8.94141 10.2802 8.61385 10.5556C8.3018 10.8178 8.11852 10.875 7.95841 10.875C7.79831 10.875 7.61503 10.8178 7.30298 10.5556C6.97541 10.2802 6.59228 9.85454 6.02337 9.21909L5.29906 8.41008C5.06882 8.15291 4.67369 8.13108 4.41652 8.36133C4.15935 8.59157 4.13753 8.9867 4.36777 9.24386L5.12302 10.0874C5.6529 10.6793 6.09486 11.173 6.49871 11.5124C6.9259 11.8715 7.38668 12.125 7.95841 12.125C8.53014 12.125 8.99092 11.8715 9.41812 11.5124C9.82196 11.173 10.2639 10.6793 10.7938 10.0874L13.6324 6.9169Z" fill="url(#paint0_linear_452_801)"/>
<defs>
<linearGradient id="paint0_linear_452_801" x1="0.250082" y1="-5.58333" x2="27.8077" y2="-1.98967" gradientUnits="userSpaceOnUse">
<stop stop-color="#BAFF00"/>
<stop offset="1" stop-color="#149C6B"/>
</linearGradient>
</defs>
</svg>
